<svg width="100" height="100" viewBox="0 0 100 100" fill="none" xmlns="http://www.w3.org/2000/svg">
<g clip-path="url(#clip0_1_5)">
<path d="M100 50C100 77.6142 77.6143 100 50 100C16 86 16 86 0 50C0 22.3858 22.3858 0 50 0C77.6143 -3.8147e-06 100 22.3858 100 50Z" fill="#41DC3E"/>
<path fill-rule="evenodd" clip-rule="evenodd" d="M50.3905 76.483C53.4411 75.0111 73.3333 64.7207 73.3333 46.6667C73.3333 33.78 62.8866 23.3333 50 23.3333C37.1133 23.3333 26.6667 33.78 26.6667 46.6667C26.6667 64.7207 46.5589 75.0111 49.6095 76.483C49.866 76.6068 50.134 76.6068 50.3905 76.483ZM50 56.6667C55.5228 56.6667 60 52.1895 60 46.6667C60 41.1438 55.5228 36.6667 50 36.6667C44.4771 36.6667 40 41.1438 40 46.6667C40 52.1895 44.4771 56.6667 50 56.6667Z" fill="white"/>
<path d="M50 0H100V50L53 46L50 0Z" fill="#41DC3E"/>
</g>
<defs>
<clipPath id="clip0_1_5">
<rect width="100" height="100" fill="white"/>
</clipPath>
</defs>
</svg>
